%TF.GenerationSoftware,KiCad,Pcbnew,9.0.0*%
%TF.CreationDate,2025-04-09T11:56:36+05:30*%
%TF.ProjectId,IoT enabled health monitor,496f5420-656e-4616-926c-656420686561,rev?*%
%TF.SameCoordinates,Original*%
%TF.FileFunction,Copper,L2,Bot*%
%TF.FilePolarity,Positive*%
%FSLAX46Y46*%
G04 Gerber Fmt 4.6, Leading zero omitted, Abs format (unit mm)*
G04 Created by KiCad (PCBNEW 9.0.0) date 2025-04-09 11:56:36*
%MOMM*%
%LPD*%
G01*
G04 APERTURE LIST*
%TA.AperFunction,HeatsinkPad*%
%ADD10O,1.100000X1.700000*%
%TD*%
%TA.AperFunction,ViaPad*%
%ADD11C,0.600000*%
%TD*%
%TA.AperFunction,Conductor*%
%ADD12C,0.200000*%
%TD*%
G04 APERTURE END LIST*
D10*
%TO.P,J1,S1,SHIELD*%
%TO.N,unconnected-(J1-SHIELD-PadS1)_2*%
X60860000Y-119700000D03*
%TO.N,unconnected-(J1-SHIELD-PadS1)_3*%
X60860000Y-123500000D03*
%TO.N,unconnected-(J1-SHIELD-PadS1)_1*%
X69500000Y-119700000D03*
%TO.N,unconnected-(J1-SHIELD-PadS1)*%
X69500000Y-123500000D03*
%TD*%
D11*
%TO.N,Net-(U6-VIN)*%
X223750000Y-67500000D03*
X184500000Y-102750000D03*
%TO.N,Net-(U7-GND)*%
X206250000Y-78500000D03*
X188500000Y-104750000D03*
%TO.N,GND*%
X217500000Y-128000000D03*
X220125000Y-125875000D03*
%TO.N,Net-(U2-SCL)*%
X190500000Y-116500000D03*
X187500000Y-117250000D03*
%TO.N,Net-(U2-SDA)*%
X225750000Y-125750000D03*
X175250000Y-134750000D03*
%TO.N,Net-(U2-SCL)*%
X186500000Y-118250000D03*
X165750000Y-99500000D03*
%TO.N,Net-(U2-SDA)*%
X178250000Y-110250000D03*
X163250000Y-85000000D03*
%TO.N,GND*%
X176750000Y-90500000D03*
X183250000Y-105750000D03*
%TO.N,+3.3V*%
X224000000Y-143750000D03*
%TO.N,Net-(U1-SDA)*%
X237000000Y-104250000D03*
X162750000Y-75000000D03*
%TO.N,+3.3V*%
X190000000Y-156750000D03*
X143000000Y-79500000D03*
%TO.N,Net-(U4-DI{slash}IO_{0})*%
X158000000Y-84750000D03*
X153000000Y-81750000D03*
X136351000Y-79500000D03*
X109500000Y-119750000D03*
%TO.N,Net-(U4-CLK)*%
X135750000Y-75500000D03*
X102250000Y-113500000D03*
%TO.N,Net-(U1-SCL)*%
X152750000Y-96000000D03*
X98000000Y-109500000D03*
%TO.N,Net-(U4-DO{slash}IO_{1})*%
X127125000Y-73625000D03*
X91250000Y-142500000D03*
%TO.N,+3.3V*%
X138000000Y-70250000D03*
X67750000Y-70500000D03*
%TD*%
D12*
%TO.N,Net-(U6-VIN)*%
X162149000Y-74751057D02*
X169400057Y-67500000D01*
X162501057Y-75601000D02*
X162149000Y-75248943D01*
X162149000Y-75248943D02*
X162149000Y-74751057D01*
X162998943Y-75601000D02*
X162501057Y-75601000D01*
X184500000Y-97102057D02*
X162998943Y-75601000D01*
X169400057Y-67500000D02*
X223750000Y-67500000D01*
X184500000Y-102750000D02*
X184500000Y-97102057D01*
%TO.N,Net-(U7-GND)*%
X206250000Y-87000000D02*
X206250000Y-78500000D01*
X188500000Y-104750000D02*
X206250000Y-87000000D01*
%TO.N,GND*%
X219625000Y-125875000D02*
X217500000Y-128000000D01*
X220125000Y-125875000D02*
X219625000Y-125875000D01*
%TO.N,Net-(U2-SCL)*%
X188250000Y-116500000D02*
X190500000Y-116500000D01*
X187500000Y-117250000D02*
X188250000Y-116500000D01*
%TO.N,Net-(U2-SDA)*%
X225750000Y-126250000D02*
X225750000Y-125750000D01*
X211248943Y-157351000D02*
X225750000Y-142849943D01*
X225750000Y-142849943D02*
X225750000Y-126250000D01*
X189751057Y-157351000D02*
X211248943Y-157351000D01*
X175250000Y-142849943D02*
X189751057Y-157351000D01*
X175250000Y-134750000D02*
X175250000Y-142849943D01*
%TO.N,Net-(U2-SCL)*%
X184500000Y-118250000D02*
X186500000Y-118250000D01*
X165750000Y-99500000D02*
X184500000Y-118250000D01*
%TO.N,Net-(U2-SDA)*%
X160851000Y-92851000D02*
X178250000Y-110250000D01*
X160851000Y-87399000D02*
X160851000Y-92851000D01*
X163250000Y-85000000D02*
X160851000Y-87399000D01*
%TO.N,GND*%
X176750000Y-99250000D02*
X176750000Y-90500000D01*
X183250000Y-105750000D02*
X176750000Y-99250000D01*
%TO.N,+3.3V*%
X206750000Y-126500000D02*
X224000000Y-143750000D01*
X190000000Y-126500000D02*
X206750000Y-126500000D01*
%TO.N,Net-(U1-SDA)*%
X207750000Y-75000000D02*
X237000000Y-104250000D01*
X162750000Y-75000000D02*
X207750000Y-75000000D01*
%TO.N,+3.3V*%
X190000000Y-126500000D02*
X190000000Y-156750000D01*
X143000000Y-79500000D02*
X190000000Y-126500000D01*
%TO.N,Net-(U4-DI{slash}IO_{0})*%
X155000000Y-81750000D02*
X158000000Y-84750000D01*
X153000000Y-81750000D02*
X155000000Y-81750000D01*
X136351000Y-79500000D02*
X136351000Y-79649000D01*
X136351000Y-75251057D02*
X136351000Y-79500000D01*
X135998943Y-74899000D02*
X136351000Y-75251057D01*
X131183957Y-74899000D02*
X135998943Y-74899000D01*
X96998000Y-109084957D02*
X131183957Y-74899000D01*
X96998000Y-109915043D02*
X96998000Y-109084957D01*
X106832957Y-119750000D02*
X96998000Y-109915043D01*
X109500000Y-119750000D02*
X106832957Y-119750000D01*
%TO.N,Net-(U4-CLK)*%
X131150057Y-75500000D02*
X135750000Y-75500000D01*
X97399000Y-109251057D02*
X131150057Y-75500000D01*
X97399000Y-109748943D02*
X97399000Y-109251057D01*
X101150057Y-113500000D02*
X97399000Y-109748943D01*
X102250000Y-113500000D02*
X101150057Y-113500000D01*
%TO.N,Net-(U1-SCL)*%
X140000000Y-96000000D02*
X152750000Y-96000000D01*
X128750000Y-84750000D02*
X140000000Y-96000000D01*
X122750000Y-84750000D02*
X128750000Y-84750000D01*
X98000000Y-109500000D02*
X122750000Y-84750000D01*
%TO.N,Net-(U4-DO{slash}IO_{1})*%
X127125000Y-73625000D02*
X127250000Y-73500000D01*
X91250000Y-109500000D02*
X127125000Y-73625000D01*
X91250000Y-142500000D02*
X91250000Y-109500000D01*
%TO.N,+3.3V*%
X137750000Y-70500000D02*
X138000000Y-70250000D01*
X67750000Y-70500000D02*
X137750000Y-70500000D01*
%TD*%
M02*
