%TF.GenerationSoftware,KiCad,Pcbnew,9.0.0*%
%TF.CreationDate,2025-04-09T11:56:36+05:30*%
%TF.ProjectId,IoT enabled health monitor,496f5420-656e-4616-926c-656420686561,rev?*%
%TF.SameCoordinates,Original*%
%TF.FileFunction,Soldermask,Top*%
%TF.FilePolarity,Negative*%
%FSLAX46Y46*%
G04 Gerber Fmt 4.6, Leading zero omitted, Abs format (unit mm)*
G04 Created by KiCad (PCBNEW 9.0.0) date 2025-04-09 11:56:36*
%MOMM*%
%LPD*%
G01*
G04 APERTURE LIST*
G04 Aperture macros list*
%AMRoundRect*
0 Rectangle with rounded corners*
0 $1 Rounding radius*
0 $2 $3 $4 $5 $6 $7 $8 $9 X,Y pos of 4 corners*
0 Add a 4 corners polygon primitive as box body*
4,1,4,$2,$3,$4,$5,$6,$7,$8,$9,$2,$3,0*
0 Add four circle primitives for the rounded corners*
1,1,$1+$1,$2,$3*
1,1,$1+$1,$4,$5*
1,1,$1+$1,$6,$7*
1,1,$1+$1,$8,$9*
0 Add four rect primitives between the rounded corners*
20,1,$1+$1,$2,$3,$4,$5,0*
20,1,$1+$1,$4,$5,$6,$7,0*
20,1,$1+$1,$6,$7,$8,$9,0*
20,1,$1+$1,$8,$9,$2,$3,0*%
G04 Aperture macros list end*
%ADD10RoundRect,0.150000X-0.512500X-0.150000X0.512500X-0.150000X0.512500X0.150000X-0.512500X0.150000X0*%
%ADD11R,1.500000X0.900000*%
%ADD12R,0.900000X1.500000*%
%ADD13R,4.100000X4.100000*%
%ADD14RoundRect,0.150000X-0.825000X-0.150000X0.825000X-0.150000X0.825000X0.150000X-0.825000X0.150000X0*%
%ADD15R,2.410000X3.300000*%
%ADD16RoundRect,0.162500X-0.650000X-0.162500X0.650000X-0.162500X0.650000X0.162500X-0.650000X0.162500X0*%
%ADD17RoundRect,0.093750X-0.093750X-0.106250X0.093750X-0.106250X0.093750X0.106250X-0.093750X0.106250X0*%
%ADD18R,1.000000X1.600000*%
%ADD19RoundRect,0.075000X-0.350000X-0.075000X0.350000X-0.075000X0.350000X0.075000X-0.350000X0.075000X0*%
%ADD20RoundRect,0.075000X0.075000X-0.350000X0.075000X0.350000X-0.075000X0.350000X-0.075000X-0.350000X0*%
%ADD21RoundRect,0.087500X-0.287500X-0.087500X0.287500X-0.087500X0.287500X0.087500X-0.287500X0.087500X0*%
%ADD22RoundRect,0.175000X-0.175000X-0.425000X0.175000X-0.425000X0.175000X0.425000X-0.175000X0.425000X0*%
%ADD23RoundRect,0.190000X0.190000X0.410000X-0.190000X0.410000X-0.190000X-0.410000X0.190000X-0.410000X0*%
%ADD24RoundRect,0.200000X0.200000X0.400000X-0.200000X0.400000X-0.200000X-0.400000X0.200000X-0.400000X0*%
%ADD25RoundRect,0.175000X0.175000X0.425000X-0.175000X0.425000X-0.175000X-0.425000X0.175000X-0.425000X0*%
%ADD26RoundRect,0.190000X-0.190000X-0.410000X0.190000X-0.410000X0.190000X0.410000X-0.190000X0.410000X0*%
%ADD27RoundRect,0.200000X-0.200000X-0.400000X0.200000X-0.400000X0.200000X0.400000X-0.200000X0.400000X0*%
%ADD28O,1.100000X1.700000*%
G04 APERTURE END LIST*
D10*
%TO.C,U9*%
X148475000Y-150600000D03*
X148475000Y-151550000D03*
X148475000Y-152500000D03*
X150750000Y-152500000D03*
X150750000Y-151550000D03*
X150750000Y-150600000D03*
%TD*%
D11*
%TO.C,U8*%
X148392500Y-64230000D03*
X148392500Y-65730000D03*
X148392500Y-67230000D03*
X148392500Y-68730000D03*
X148392500Y-70230000D03*
X148392500Y-71730000D03*
X148392500Y-73230000D03*
X148392500Y-74730000D03*
X148392500Y-76230000D03*
X148392500Y-77730000D03*
X148392500Y-79230000D03*
X148392500Y-80730000D03*
X148392500Y-82230000D03*
X148392500Y-83730000D03*
X148392500Y-85230000D03*
X148392500Y-86730000D03*
D12*
X150267500Y-87480000D03*
X151767500Y-87480000D03*
X153267500Y-87480000D03*
X154767500Y-87480000D03*
X156267500Y-87480000D03*
X157767500Y-87480000D03*
X159267500Y-87480000D03*
X160767500Y-87480000D03*
X162267500Y-87480000D03*
X163767500Y-87480000D03*
D11*
X165642500Y-86830000D03*
X165642500Y-85330000D03*
X165642500Y-83830000D03*
X165642500Y-82330000D03*
X165642500Y-80830000D03*
X165642500Y-79330000D03*
X165642500Y-77830000D03*
X165642500Y-76330000D03*
X165642500Y-74830000D03*
X165642500Y-73330000D03*
X165642500Y-71830000D03*
X165642500Y-70330000D03*
X165642500Y-68830000D03*
X165642500Y-67230000D03*
X165642500Y-65730000D03*
X165642500Y-64330000D03*
D13*
X155827500Y-72270000D03*
%TD*%
D14*
%TO.C,U7*%
X236550000Y-58940000D03*
X236550000Y-60210000D03*
X236550000Y-61480000D03*
X236550000Y-62750000D03*
X241500000Y-62750000D03*
X241500000Y-61480000D03*
X241500000Y-60210000D03*
X241500000Y-58940000D03*
D15*
X239025000Y-60845000D03*
%TD*%
D10*
%TO.C,U6*%
X62225000Y-68100000D03*
X62225000Y-69050000D03*
X62225000Y-70000000D03*
X64500000Y-70000000D03*
X64500000Y-68100000D03*
%TD*%
D16*
%TO.C,U4*%
X90075000Y-145190000D03*
X90075000Y-146460000D03*
X90075000Y-147730000D03*
X90075000Y-149000000D03*
X97250000Y-149000000D03*
X97250000Y-147730000D03*
X97250000Y-146460000D03*
X97250000Y-145190000D03*
%TD*%
D17*
%TO.C,U3*%
X220725000Y-129450000D03*
X220725000Y-130100000D03*
X220725000Y-130750000D03*
X222500000Y-130750000D03*
X222500000Y-130100000D03*
X222500000Y-129450000D03*
D18*
X221612500Y-130100000D03*
%TD*%
D19*
%TO.C,U2*%
X176600000Y-137750000D03*
X176600000Y-138250000D03*
X176600000Y-138750000D03*
X176600000Y-139250000D03*
X176600000Y-139750000D03*
X176600000Y-140250000D03*
D20*
X177300000Y-140950000D03*
X177800000Y-140950000D03*
X178300000Y-140950000D03*
X178800000Y-140950000D03*
X179300000Y-140950000D03*
X179800000Y-140950000D03*
D19*
X180500000Y-140250000D03*
X180500000Y-139750000D03*
X180500000Y-139250000D03*
X180500000Y-138750000D03*
X180500000Y-138250000D03*
X180500000Y-137750000D03*
D20*
X179800000Y-137050000D03*
X179300000Y-137050000D03*
X178800000Y-137050000D03*
X178300000Y-137050000D03*
X177800000Y-137050000D03*
X177300000Y-137050000D03*
%TD*%
D21*
%TO.C,U1*%
X244100000Y-100450000D03*
X244100000Y-101250000D03*
X244100000Y-102050000D03*
X244100000Y-102850000D03*
X244100000Y-103650000D03*
X244100000Y-104450000D03*
X244100000Y-105250000D03*
X246500000Y-105250000D03*
X246500000Y-104450000D03*
X246500000Y-103650000D03*
X246500000Y-102850000D03*
X246500000Y-102050000D03*
X246500000Y-101250000D03*
X246500000Y-100450000D03*
%TD*%
D22*
%TO.C,J1*%
X64680000Y-119620000D03*
D23*
X66700000Y-119620000D03*
D24*
X67930000Y-119620000D03*
D25*
X65680000Y-119620000D03*
D26*
X63660000Y-119620000D03*
D27*
X62430000Y-119620000D03*
D28*
X60860000Y-119700000D03*
X60860000Y-123500000D03*
X69500000Y-119700000D03*
X69500000Y-123500000D03*
%TD*%
M02*
