%TF.GenerationSoftware,KiCad,Pcbnew,9.0.0*%
%TF.CreationDate,2025-04-09T11:56:36+05:30*%
%TF.ProjectId,IoT enabled health monitor,496f5420-656e-4616-926c-656420686561,rev?*%
%TF.SameCoordinates,Original*%
%TF.FileFunction,Legend,Top*%
%TF.FilePolarity,Positive*%
%FSLAX46Y46*%
G04 Gerber Fmt 4.6, Leading zero omitted, Abs format (unit mm)*
G04 Created by KiCad (PCBNEW 9.0.0) date 2025-04-09 11:56:36*
%MOMM*%
%LPD*%
G01*
G04 APERTURE LIST*
%ADD10C,0.150000*%
%ADD11C,0.120000*%
G04 APERTURE END LIST*
D10*
X148850595Y-148604819D02*
X148850595Y-149414342D01*
X148850595Y-149414342D02*
X148898214Y-149509580D01*
X148898214Y-149509580D02*
X148945833Y-149557200D01*
X148945833Y-149557200D02*
X149041071Y-149604819D01*
X149041071Y-149604819D02*
X149231547Y-149604819D01*
X149231547Y-149604819D02*
X149326785Y-149557200D01*
X149326785Y-149557200D02*
X149374404Y-149509580D01*
X149374404Y-149509580D02*
X149422023Y-149414342D01*
X149422023Y-149414342D02*
X149422023Y-148604819D01*
X149945833Y-149604819D02*
X150136309Y-149604819D01*
X150136309Y-149604819D02*
X150231547Y-149557200D01*
X150231547Y-149557200D02*
X150279166Y-149509580D01*
X150279166Y-149509580D02*
X150374404Y-149366723D01*
X150374404Y-149366723D02*
X150422023Y-149176247D01*
X150422023Y-149176247D02*
X150422023Y-148795295D01*
X150422023Y-148795295D02*
X150374404Y-148700057D01*
X150374404Y-148700057D02*
X150326785Y-148652438D01*
X150326785Y-148652438D02*
X150231547Y-148604819D01*
X150231547Y-148604819D02*
X150041071Y-148604819D01*
X150041071Y-148604819D02*
X149945833Y-148652438D01*
X149945833Y-148652438D02*
X149898214Y-148700057D01*
X149898214Y-148700057D02*
X149850595Y-148795295D01*
X149850595Y-148795295D02*
X149850595Y-149033390D01*
X149850595Y-149033390D02*
X149898214Y-149128628D01*
X149898214Y-149128628D02*
X149945833Y-149176247D01*
X149945833Y-149176247D02*
X150041071Y-149223866D01*
X150041071Y-149223866D02*
X150231547Y-149223866D01*
X150231547Y-149223866D02*
X150326785Y-149176247D01*
X150326785Y-149176247D02*
X150374404Y-149128628D01*
X150374404Y-149128628D02*
X150422023Y-149033390D01*
X90517319Y-141966904D02*
X91326842Y-141966904D01*
X91326842Y-141966904D02*
X91422080Y-141919285D01*
X91422080Y-141919285D02*
X91469700Y-141871666D01*
X91469700Y-141871666D02*
X91517319Y-141776428D01*
X91517319Y-141776428D02*
X91517319Y-141585952D01*
X91517319Y-141585952D02*
X91469700Y-141490714D01*
X91469700Y-141490714D02*
X91422080Y-141443095D01*
X91422080Y-141443095D02*
X91326842Y-141395476D01*
X91326842Y-141395476D02*
X90517319Y-141395476D01*
X90945890Y-140776428D02*
X90898271Y-140871666D01*
X90898271Y-140871666D02*
X90850652Y-140919285D01*
X90850652Y-140919285D02*
X90755414Y-140966904D01*
X90755414Y-140966904D02*
X90707795Y-140966904D01*
X90707795Y-140966904D02*
X90612557Y-140919285D01*
X90612557Y-140919285D02*
X90564938Y-140871666D01*
X90564938Y-140871666D02*
X90517319Y-140776428D01*
X90517319Y-140776428D02*
X90517319Y-140585952D01*
X90517319Y-140585952D02*
X90564938Y-140490714D01*
X90564938Y-140490714D02*
X90612557Y-140443095D01*
X90612557Y-140443095D02*
X90707795Y-140395476D01*
X90707795Y-140395476D02*
X90755414Y-140395476D01*
X90755414Y-140395476D02*
X90850652Y-140443095D01*
X90850652Y-140443095D02*
X90898271Y-140490714D01*
X90898271Y-140490714D02*
X90945890Y-140585952D01*
X90945890Y-140585952D02*
X90945890Y-140776428D01*
X90945890Y-140776428D02*
X90993509Y-140871666D01*
X90993509Y-140871666D02*
X91041128Y-140919285D01*
X91041128Y-140919285D02*
X91136366Y-140966904D01*
X91136366Y-140966904D02*
X91326842Y-140966904D01*
X91326842Y-140966904D02*
X91422080Y-140919285D01*
X91422080Y-140919285D02*
X91469700Y-140871666D01*
X91469700Y-140871666D02*
X91517319Y-140776428D01*
X91517319Y-140776428D02*
X91517319Y-140585952D01*
X91517319Y-140585952D02*
X91469700Y-140490714D01*
X91469700Y-140490714D02*
X91422080Y-140443095D01*
X91422080Y-140443095D02*
X91326842Y-140395476D01*
X91326842Y-140395476D02*
X91136366Y-140395476D01*
X91136366Y-140395476D02*
X91041128Y-140443095D01*
X91041128Y-140443095D02*
X90993509Y-140490714D01*
X90993509Y-140490714D02*
X90945890Y-140585952D01*
X238263095Y-56899819D02*
X238263095Y-57709342D01*
X238263095Y-57709342D02*
X238310714Y-57804580D01*
X238310714Y-57804580D02*
X238358333Y-57852200D01*
X238358333Y-57852200D02*
X238453571Y-57899819D01*
X238453571Y-57899819D02*
X238644047Y-57899819D01*
X238644047Y-57899819D02*
X238739285Y-57852200D01*
X238739285Y-57852200D02*
X238786904Y-57804580D01*
X238786904Y-57804580D02*
X238834523Y-57709342D01*
X238834523Y-57709342D02*
X238834523Y-56899819D01*
X239215476Y-56899819D02*
X239882142Y-56899819D01*
X239882142Y-56899819D02*
X239453571Y-57899819D01*
X62600595Y-66104819D02*
X62600595Y-66914342D01*
X62600595Y-66914342D02*
X62648214Y-67009580D01*
X62648214Y-67009580D02*
X62695833Y-67057200D01*
X62695833Y-67057200D02*
X62791071Y-67104819D01*
X62791071Y-67104819D02*
X62981547Y-67104819D01*
X62981547Y-67104819D02*
X63076785Y-67057200D01*
X63076785Y-67057200D02*
X63124404Y-67009580D01*
X63124404Y-67009580D02*
X63172023Y-66914342D01*
X63172023Y-66914342D02*
X63172023Y-66104819D01*
X64076785Y-66104819D02*
X63886309Y-66104819D01*
X63886309Y-66104819D02*
X63791071Y-66152438D01*
X63791071Y-66152438D02*
X63743452Y-66200057D01*
X63743452Y-66200057D02*
X63648214Y-66342914D01*
X63648214Y-66342914D02*
X63600595Y-66533390D01*
X63600595Y-66533390D02*
X63600595Y-66914342D01*
X63600595Y-66914342D02*
X63648214Y-67009580D01*
X63648214Y-67009580D02*
X63695833Y-67057200D01*
X63695833Y-67057200D02*
X63791071Y-67104819D01*
X63791071Y-67104819D02*
X63981547Y-67104819D01*
X63981547Y-67104819D02*
X64076785Y-67057200D01*
X64076785Y-67057200D02*
X64124404Y-67009580D01*
X64124404Y-67009580D02*
X64172023Y-66914342D01*
X64172023Y-66914342D02*
X64172023Y-66676247D01*
X64172023Y-66676247D02*
X64124404Y-66581009D01*
X64124404Y-66581009D02*
X64076785Y-66533390D01*
X64076785Y-66533390D02*
X63981547Y-66485771D01*
X63981547Y-66485771D02*
X63791071Y-66485771D01*
X63791071Y-66485771D02*
X63695833Y-66533390D01*
X63695833Y-66533390D02*
X63648214Y-66581009D01*
X63648214Y-66581009D02*
X63600595Y-66676247D01*
X92900595Y-142949819D02*
X92900595Y-143759342D01*
X92900595Y-143759342D02*
X92948214Y-143854580D01*
X92948214Y-143854580D02*
X92995833Y-143902200D01*
X92995833Y-143902200D02*
X93091071Y-143949819D01*
X93091071Y-143949819D02*
X93281547Y-143949819D01*
X93281547Y-143949819D02*
X93376785Y-143902200D01*
X93376785Y-143902200D02*
X93424404Y-143854580D01*
X93424404Y-143854580D02*
X93472023Y-143759342D01*
X93472023Y-143759342D02*
X93472023Y-142949819D01*
X94376785Y-143283152D02*
X94376785Y-143949819D01*
X94138690Y-142902200D02*
X93900595Y-143616485D01*
X93900595Y-143616485D02*
X94519642Y-143616485D01*
X220850595Y-127604819D02*
X220850595Y-128414342D01*
X220850595Y-128414342D02*
X220898214Y-128509580D01*
X220898214Y-128509580D02*
X220945833Y-128557200D01*
X220945833Y-128557200D02*
X221041071Y-128604819D01*
X221041071Y-128604819D02*
X221231547Y-128604819D01*
X221231547Y-128604819D02*
X221326785Y-128557200D01*
X221326785Y-128557200D02*
X221374404Y-128509580D01*
X221374404Y-128509580D02*
X221422023Y-128414342D01*
X221422023Y-128414342D02*
X221422023Y-127604819D01*
X221802976Y-127604819D02*
X222422023Y-127604819D01*
X222422023Y-127604819D02*
X222088690Y-127985771D01*
X222088690Y-127985771D02*
X222231547Y-127985771D01*
X222231547Y-127985771D02*
X222326785Y-128033390D01*
X222326785Y-128033390D02*
X222374404Y-128081009D01*
X222374404Y-128081009D02*
X222422023Y-128176247D01*
X222422023Y-128176247D02*
X222422023Y-128414342D01*
X222422023Y-128414342D02*
X222374404Y-128509580D01*
X222374404Y-128509580D02*
X222326785Y-128557200D01*
X222326785Y-128557200D02*
X222231547Y-128604819D01*
X222231547Y-128604819D02*
X221945833Y-128604819D01*
X221945833Y-128604819D02*
X221850595Y-128557200D01*
X221850595Y-128557200D02*
X221802976Y-128509580D01*
X177788095Y-135079819D02*
X177788095Y-135889342D01*
X177788095Y-135889342D02*
X177835714Y-135984580D01*
X177835714Y-135984580D02*
X177883333Y-136032200D01*
X177883333Y-136032200D02*
X177978571Y-136079819D01*
X177978571Y-136079819D02*
X178169047Y-136079819D01*
X178169047Y-136079819D02*
X178264285Y-136032200D01*
X178264285Y-136032200D02*
X178311904Y-135984580D01*
X178311904Y-135984580D02*
X178359523Y-135889342D01*
X178359523Y-135889342D02*
X178359523Y-135079819D01*
X178788095Y-135175057D02*
X178835714Y-135127438D01*
X178835714Y-135127438D02*
X178930952Y-135079819D01*
X178930952Y-135079819D02*
X179169047Y-135079819D01*
X179169047Y-135079819D02*
X179264285Y-135127438D01*
X179264285Y-135127438D02*
X179311904Y-135175057D01*
X179311904Y-135175057D02*
X179359523Y-135270295D01*
X179359523Y-135270295D02*
X179359523Y-135365533D01*
X179359523Y-135365533D02*
X179311904Y-135508390D01*
X179311904Y-135508390D02*
X178740476Y-136079819D01*
X178740476Y-136079819D02*
X179359523Y-136079819D01*
X244758095Y-98234819D02*
X244758095Y-99044342D01*
X244758095Y-99044342D02*
X244805714Y-99139580D01*
X244805714Y-99139580D02*
X244853333Y-99187200D01*
X244853333Y-99187200D02*
X244948571Y-99234819D01*
X244948571Y-99234819D02*
X245139047Y-99234819D01*
X245139047Y-99234819D02*
X245234285Y-99187200D01*
X245234285Y-99187200D02*
X245281904Y-99139580D01*
X245281904Y-99139580D02*
X245329523Y-99044342D01*
X245329523Y-99044342D02*
X245329523Y-98234819D01*
X246329523Y-99234819D02*
X245758095Y-99234819D01*
X246043809Y-99234819D02*
X246043809Y-98234819D01*
X246043809Y-98234819D02*
X245948571Y-98377676D01*
X245948571Y-98377676D02*
X245853333Y-98472914D01*
X245853333Y-98472914D02*
X245758095Y-98520533D01*
X64846666Y-117054819D02*
X64846666Y-117769104D01*
X64846666Y-117769104D02*
X64799047Y-117911961D01*
X64799047Y-117911961D02*
X64703809Y-118007200D01*
X64703809Y-118007200D02*
X64560952Y-118054819D01*
X64560952Y-118054819D02*
X64465714Y-118054819D01*
X65846666Y-118054819D02*
X65275238Y-118054819D01*
X65560952Y-118054819D02*
X65560952Y-117054819D01*
X65560952Y-117054819D02*
X65465714Y-117197676D01*
X65465714Y-117197676D02*
X65370476Y-117292914D01*
X65370476Y-117292914D02*
X65275238Y-117340533D01*
D11*
%TO.C,U9*%
X149612500Y-149990000D02*
X148812500Y-149990000D01*
X149612500Y-149990000D02*
X150412500Y-149990000D01*
X149612500Y-153110000D02*
X148812500Y-153110000D01*
X149612500Y-153110000D02*
X150412500Y-153110000D01*
X148312500Y-150040000D02*
X148072500Y-149710000D01*
X148552500Y-149710000D01*
X148312500Y-150040000D01*
G36*
X148312500Y-150040000D02*
G01*
X148072500Y-149710000D01*
X148552500Y-149710000D01*
X148312500Y-150040000D01*
G37*
%TO.C,U8*%
X147892500Y-56555000D02*
X166147500Y-56555000D01*
X147892500Y-62805000D02*
X147892500Y-56555000D01*
X147897500Y-87445000D02*
X147897500Y-87805000D01*
X147897500Y-87805000D02*
X149557500Y-87805000D01*
X166137500Y-87545000D02*
X166137500Y-87805000D01*
X166137500Y-87805000D02*
X164477500Y-87805000D01*
X166147500Y-62975000D02*
X166147500Y-56555000D01*
X147892500Y-63530000D02*
X147392500Y-63530000D01*
X147892500Y-63030000D01*
X147892500Y-63530000D01*
G36*
X147892500Y-63530000D02*
G01*
X147392500Y-63530000D01*
X147892500Y-63030000D01*
X147892500Y-63530000D01*
G37*
%TO.C,U7*%
X239025000Y-58285000D02*
X237075000Y-58285000D01*
X239025000Y-58285000D02*
X240975000Y-58285000D01*
X239025000Y-63405000D02*
X237075000Y-63405000D01*
X239025000Y-63405000D02*
X240975000Y-63405000D01*
X236325000Y-58380000D02*
X236085000Y-58050000D01*
X236565000Y-58050000D01*
X236325000Y-58380000D01*
G36*
X236325000Y-58380000D02*
G01*
X236085000Y-58050000D01*
X236565000Y-58050000D01*
X236325000Y-58380000D01*
G37*
%TO.C,U6*%
X63362500Y-67490000D02*
X62562500Y-67490000D01*
X63362500Y-67490000D02*
X64162500Y-67490000D01*
X63362500Y-70610000D02*
X62562500Y-70610000D01*
X63362500Y-70610000D02*
X64162500Y-70610000D01*
X62062500Y-67540000D02*
X61822500Y-67210000D01*
X62302500Y-67210000D01*
X62062500Y-67540000D01*
G36*
X62062500Y-67540000D02*
G01*
X61822500Y-67210000D01*
X62302500Y-67210000D01*
X62062500Y-67540000D01*
G37*
%TO.C,U4*%
X90902500Y-144335000D02*
X90902500Y-144605000D01*
X90902500Y-149855000D02*
X90902500Y-149585000D01*
X93662500Y-144335000D02*
X90902500Y-144335000D01*
X93662500Y-144335000D02*
X96422500Y-144335000D01*
X93662500Y-149855000D02*
X90902500Y-149855000D01*
X93662500Y-149855000D02*
X96422500Y-149855000D01*
X96422500Y-144335000D02*
X96422500Y-144605000D01*
X96422500Y-149855000D02*
X96422500Y-149585000D01*
X90137500Y-144605000D02*
X89897500Y-144275000D01*
X90377500Y-144275000D01*
X90137500Y-144605000D01*
G36*
X90137500Y-144605000D02*
G01*
X89897500Y-144275000D01*
X90377500Y-144275000D01*
X90137500Y-144605000D01*
G37*
%TO.C,U3*%
X220612500Y-128990000D02*
X222612500Y-128990000D01*
X220612500Y-131210000D02*
X222612500Y-131210000D01*
X220372500Y-129090000D02*
X220092500Y-129090000D01*
X220372500Y-128810000D01*
X220372500Y-129090000D01*
G36*
X220372500Y-129090000D02*
G01*
X220092500Y-129090000D01*
X220372500Y-128810000D01*
X220372500Y-129090000D01*
G37*
%TO.C,U2*%
X176400000Y-137315000D02*
X176400000Y-137090000D01*
X176400000Y-141150000D02*
X176400000Y-140625000D01*
X176400000Y-141150000D02*
X176925000Y-141150000D01*
X176925000Y-136850000D02*
X176700000Y-136850000D01*
X180700000Y-136850000D02*
X180175000Y-136850000D01*
X180700000Y-136850000D02*
X180700000Y-137375000D01*
X180700000Y-141150000D02*
X180175000Y-141150000D01*
X180700000Y-141150000D02*
X180700000Y-140625000D01*
X176400000Y-136850000D02*
X176160000Y-136520000D01*
X176640000Y-136520000D01*
X176400000Y-136850000D01*
G36*
X176400000Y-136850000D02*
G01*
X176160000Y-136520000D01*
X176640000Y-136520000D01*
X176400000Y-136850000D01*
G37*
%TO.C,U1*%
X244050000Y-99930000D02*
X246940000Y-99930000D01*
X246960000Y-105750000D02*
X243650000Y-105750000D01*
X243610000Y-100000000D02*
X243330000Y-100000000D01*
X243610000Y-99720000D01*
X243610000Y-100000000D01*
G36*
X243610000Y-100000000D02*
G01*
X243330000Y-100000000D01*
X243610000Y-99720000D01*
X243610000Y-100000000D01*
G37*
%TO.C,J1*%
X60510000Y-122450000D02*
X60510000Y-120750000D01*
X69850000Y-122450000D02*
X69850000Y-120750000D01*
%TD*%
M02*
