M48
; DRILL file {KiCad 9.0.0} date 2025-04-09T11:56:34+0530
; FORMAT={-:-/ absolute / metric / decimal}
; #@! TF.CreationDate,2025-04-09T11:56:34+05:30
; #@! TF.GenerationSoftware,Kicad,Pcbnew,9.0.0
; #@! TF.FileFunction,Plated,1,2,PTH
FMAT,2
METRIC
; #@! TA.AperFunction,Plated,PTH,ViaDrill
T1C0.300
; #@! TA.AperFunction,Plated,PTH,ComponentDrill
T2C0.600
%
G90
G05
T1
X67.75Y-70.5
X91.25Y-142.5
X98.0Y-109.5
X102.25Y-113.5
X109.5Y-119.75
X127.125Y-73.625
X135.75Y-75.5
X136.351Y-79.5
X138.0Y-70.25
X143.0Y-79.5
X152.75Y-96.0
X153.0Y-81.75
X158.0Y-84.75
X162.75Y-75.0
X163.25Y-85.0
X165.75Y-99.5
X175.25Y-134.75
X176.75Y-90.5
X178.25Y-110.25
X183.25Y-105.75
X184.5Y-102.75
X186.5Y-118.25
X187.5Y-117.25
X188.5Y-104.75
X190.0Y-156.75
X190.5Y-116.5
X206.25Y-78.5
X217.5Y-128.0
X220.125Y-125.875
X223.75Y-67.5
X224.0Y-143.75
X225.75Y-125.75
X237.0Y-104.25
T2
G00X60.86Y-119.4
M15
G01X60.86Y-120.0
M16
G05
G00X60.86Y-123.2
M15
G01X60.86Y-123.8
M16
G05
G00X69.5Y-119.4
M15
G01X69.5Y-120.0
M16
G05
G00X69.5Y-123.2
M15
G01X69.5Y-123.8
M16
G05
M30
